<?xml version="1.0" encoding="utf-8"?>
<!-- Generator: Adobe Illustrator 28.3.0, SVG Export Plug-In . SVG Version: 6.00 Build 0)  -->
<svg version="1.1" id="Warstwa_1" xmlns="http://www.w3.org/2000/svg" xmlns:xlink="http://www.w3.org/1999/xlink" x="0px" y="0px"
	 viewBox="0 0 158.7 158.7" style="enable-background:new 0 0 158.7 158.7;" xml:space="preserve">
<style type="text/css">
	.st0{fill:#DFEAEF;}
	.st1{fill:#94A8B2;}
</style>
<g>
	<path class="st0" d="M150.2,79.4c0,16.3-5.5,31.2-14.7,43.2c-1.4,1.8-2.9,3.6-4.5,5.3c-12.9,13.8-31.3,22.4-51.7,22.4
		c-20.4,0-38.8-8.6-51.7-22.4c-1.6-1.7-3.1-3.4-4.5-5.3C14,110.6,8.5,95.6,8.5,79.4c0-39.1,31.7-70.9,70.9-70.9
		C118.5,8.5,150.2,40.2,150.2,79.4z"/>
	<path class="st1" d="M135.6,122.6c-1.4,1.8-2.9,3.6-4.5,5.3c-12.9,13.8-31.3,22.4-51.7,22.4c-20.4,0-38.8-8.6-51.7-22.4
		c-1.6-1.7-3.1-3.4-4.5-5.3c0.8-2.9,1.7-5.9,3.7-8.1c2.5-2.9,6.4-4.1,10.1-5.3c8.9-2.7,17.7-5.4,26.6-8.2c0.8-2.2,1.7-5.6,1.9-10.6
		c-2-2.2-3.6-4.7-4.5-6.8c-1.4-3.4-1.7-6.7-1.7-8.8c-0.3,0.6-1.2,1-1.9,0.8c-0.8-0.2-1.5-0.8-1.9-1.5c-0.4-0.7-0.6-1.6-0.7-2.4
		c-0.5-2.8-0.7-5.7-0.6-8.6c0-1.2,0.3-2.7,1.5-3.1c0.5-0.2,1.1-0.1,1.7,0.2c-0.3-5.8-0.2-9.2,0-15c0.1-3,0.4-6,1.8-8.6
		c1.3-2.4,3.6-4.2,6.1-5.3c1.3-0.6,2.8-1.1,4.2-1.5C76.2,28,83.4,28,90,30.1c1.1,0.3,2.3,0.8,3.4,1.2c2.5,1.1,4.8,2.9,6.1,5.3
		c1.5,2.6,1.7,5.6,1.9,8.6c0.3,5.8,0.3,9.2,0,15c0.5-0.3,1.1-0.4,1.6-0.2c1.2,0.4,1.4,1.9,1.5,3.1c0.1,2.9-0.1,5.8-0.6,8.6
		c-0.1,0.8-0.3,1.6-0.7,2.4c-0.4,0.7-1.1,1.4-1.9,1.5c-0.7,0.1-1.6-0.2-1.9-0.8c0,2.1-0.3,5.3-1.7,8.8c-0.9,2.1-2.5,4.6-4.5,6.8
		c0.3,5.1,1.1,8.4,1.9,10.6c8.9,2.7,17.7,5.4,26.6,8.2c3.7,1.1,7.5,2.4,10.1,5.3C133.9,116.7,134.8,119.6,135.6,122.6z"/>
</g>
</svg>
