<?xml version="1.0" encoding="utf-8"?>
<!-- Generator: Adobe Illustrator 28.3.0, SVG Export Plug-In . SVG Version: 6.00 Build 0)  -->
<svg version="1.1" id="Warstwa_1" xmlns="http://www.w3.org/2000/svg" xmlns:xlink="http://www.w3.org/1999/xlink" x="0px" y="0px"
	 viewBox="0 0 158.7 158.7" style="enable-background:new 0 0 158.7 158.7;" xml:space="preserve">
<style type="text/css">
	.st0{fill:#DFEAEF;}
	.st1{fill:#94A8B2;}
</style>
<g>
	<path class="st0" d="M150.2,79.4c0,18.8-7.3,35.8-19.2,48.5c-0.1,0.1-0.2,0.2-0.3,0.3c-3.1,3.3-6.5,6.3-10.2,8.9
		c-11.6,8.3-25.9,13.2-41.2,13.2c-15.4,0-29.6-4.9-41.2-13.2c-3.7-2.6-7.1-5.6-10.2-8.9c-0.1-0.1-0.2-0.2-0.3-0.3
		C15.8,115.2,8.5,98.1,8.5,79.4c0-39.1,31.7-70.9,70.9-70.9C118.5,8.5,150.2,40.2,150.2,79.4z"/>
	<path class="st1" d="M130.8,128.1c-3.1,3.3-6.5,6.3-10.2,8.9c-11.6,8.3-25.9,13.2-41.2,13.2c-15.4,0-29.6-4.9-41.2-13.2
		c-3.7-2.6-7.1-5.6-10.2-8.9c1.8-4.4,4.9-6.8,10.3-8.9c6.4-2.4,11.1-3.7,17.6-5.8c4-1.3,8.3-5.4,10.1-9.2c1.7-3.8,1.9-8,1.6-12.2
		c-0.9-0.8-1.7-1.6-2.2-2.4c-1.9-2.6-4.2-7.1-5.4-12.3c-0.6,0.3-1.4,0.2-2-0.3c-0.8-0.6-1.1-1.6-1.4-2.6c-0.7-2.5-1.3-5-1.6-7.6
		c-0.1-0.6-0.2-1.3,0-1.9c0.1-0.6,0.5-1.2,1.1-1.5c0,0,0.1,0,0.1,0c-0.1-4.8,0.2-9.6,1-14.4c0.6-3.4,1.4-6.8,3.2-9.8
		c1.9-3.2,5-5.8,8.6-7.3c0.4-0.2,0.8-0.3,1.2-0.4c0,0,0,0,0-0.1c0-5,4.1-9.1,9.1-9.1c5,0,9.1,4.1,9.1,9.1c0,0,0,0,0,0.1
		c0.4,0.1,0.8,0.3,1.2,0.4c3.6,1.5,6.6,4.1,8.6,7.3c1.8,3,2.6,6.4,3.2,9.8c0.8,4.7,1.1,9.6,1,14.4c0,0,0.1,0,0.1,0
		c0.6,0.2,1,0.9,1.1,1.5c0.1,0.6,0.1,1.3,0,1.9c-0.3,2.6-0.9,5.1-1.6,7.6c-0.3,1-0.6,2-1.4,2.6c-0.5,0.4-1.4,0.5-2,0.3
		c-1.1,5.1-3.5,9.6-5.4,12.3c-0.5,0.8-1.3,1.6-2.2,2.4c-0.2,4.2-0.1,8.4,1.6,12.2c1.8,3.8,6.1,7.9,10.1,9.2
		c6.5,2.1,11.2,3.4,17.6,5.8C125.9,121.3,129,123.7,130.8,128.1z"/>
</g>
</svg>
